<svg preserveAspectRatio="none" width="100%" height="100%" overflow="visible" style="display: block;" viewBox="0 0 34.2086 17.2497" fill="none" xmlns="http://www.w3.org/2000/svg">
<g id="Group 7987">
<path id="Union" fill-rule="evenodd" clip-rule="evenodd" d="M12.8652 7.89401C12.8652 10.639 10.64 12.8642 7.89507 12.8642C5.15012 12.8642 2.9249 10.639 2.9249 7.89401C2.9249 5.14907 5.15012 2.92385 7.89507 2.92385C10.64 2.92385 12.8652 5.14907 12.8652 7.89401ZM15.5577 9.79794C15.7389 9.06637 16.3508 8.47874 17.1045 8.47874C17.8582 8.47874 18.4701 9.06637 18.6513 9.79794C19.5031 13.2378 22.6107 15.7878 26.3139 15.7878C28.198 15.7878 29.9279 15.1277 31.285 14.0262V15.7879C31.285 16.5952 31.9395 17.2497 32.7468 17.2497C33.5542 17.2497 34.2086 16.5952 34.2086 15.7879V8.47882C34.2086 8.41753 34.2049 8.35712 34.1975 8.29781C34.2043 8.16406 34.2077 8.02944 34.2077 7.89401C34.2077 3.53439 30.6735 0.000223376 26.3139 0.000223376C23.6557 0.000223376 21.3045 1.31409 19.874 3.32784C19.2184 4.25078 18.2366 4.97039 17.1045 4.97039C15.9724 4.97039 14.9905 4.25078 14.3349 3.32784C12.9045 1.31409 10.5532 0.000223376 7.89507 0.000223376C3.53545 0.000223376 0.00127981 3.53439 0.00127981 7.89401C0.00127981 12.2536 3.53545 15.7878 7.89507 15.7878C11.5982 15.7878 14.7058 13.2378 15.5577 9.79794ZM31.2841 7.89401C31.2841 10.639 29.0589 12.8642 26.3139 12.8642C23.569 12.8642 21.3437 10.639 21.3437 7.89401C21.3437 5.14907 23.569 2.92385 26.3139 2.92385C29.0589 2.92385 31.2841 5.14907 31.2841 7.89401Z" fill="var(--fill-0, white)"/>
<g id="Ellipse 26">
<mask id="path-2-inside-1_3019_22" fill="white">
<path d="M0.24411 5.94589C0.699852 4.15612 1.76872 2.58282 3.26471 1.49977L5.03658 3.94721C4.11321 4.6157 3.45348 5.58679 3.17218 6.69149L0.24411 5.94589Z"/>
</mask>
<path d="M0.24411 5.94589C0.699852 4.15612 1.76872 2.58282 3.26471 1.49977L5.03658 3.94721C4.11321 4.6157 3.45348 5.58679 3.17218 6.69149L0.24411 5.94589Z" stroke="var(--stroke-0, #EE5A8F)" stroke-width="14.2748" mask="url(#path-2-inside-1_3019_22)"/>
</g>
</g>
</svg>
