<svg preserveAspectRatio="none" width="100%" height="100%" overflow="visible" style="display: block;" viewBox="0 0 179.631 32.5957" fill="none" xmlns="http://www.w3.org/2000/svg">
<g id="Teachgram">
<path d="M8.18682 1.70559H5.49578C4.08078 1.70559 2.99425 2.05934 2.23621 2.76684C1.50344 3.47434 1.13706 4.63667 1.13706 6.25382H0V3.03215C0 1.01072 1.07389 0 3.22166 0H21.0356V1.70559H13.1141V25.0153H8.18682V1.70559Z" fill="var(--fill-0, #303030)"/>
<path d="M28.5754 25.3943C26.8319 25.3943 25.3032 24.99 23.9893 24.1814C22.6753 23.3729 21.652 22.2737 20.9192 20.884C20.2117 19.469 19.8579 17.8771 19.8579 16.1083C19.8579 14.1374 20.2117 12.4571 20.9192 11.0674C21.652 9.67763 22.6501 8.62901 23.9135 7.9215C25.1769 7.18873 26.6045 6.82235 28.1964 6.82235C29.763 6.82235 31.178 7.1382 32.4414 7.7699C33.7048 8.4016 34.7029 9.29861 35.4356 10.4609C36.1684 11.598 36.5348 12.9119 36.5348 14.4027C36.5348 14.8828 36.5095 15.4261 36.459 16.0325L36.3832 16.7906H24.9747C24.9747 19.191 25.3411 20.9471 26.0739 22.0589C26.8066 23.1454 27.83 23.6887 29.1439 23.6887C30.3568 23.6887 31.3675 23.4234 32.1761 22.8928C33.0099 22.3369 33.8059 21.5536 34.5639 20.5428L35.7389 21.4146C35.0061 22.5517 34.0838 23.4992 32.972 24.2572C31.8855 25.0153 30.42 25.3943 28.5754 25.3943ZM31.418 15.085C31.418 12.7098 31.1401 11.0295 30.5842 10.044C30.0283 9.03329 29.2324 8.52794 28.1964 8.52794C27.2362 8.52794 26.4529 9.04593 25.8465 10.0819C25.2653 11.0926 24.9747 12.7603 24.9747 15.085H31.418Z" fill="var(--fill-0, #303030)"/>
<path d="M45.2821 25.3943C43.2354 25.3943 41.6436 24.9395 40.5065 24.0298C39.3947 23.0949 38.8388 21.8441 38.8388 20.2775C38.8388 19.0141 39.1294 17.9655 39.7106 17.1317C40.317 16.2978 41.3656 15.6661 42.8564 15.2366C44.3472 14.807 46.4192 14.5922 49.0723 14.5922H49.6409C49.6409 12.3939 49.3377 10.84 48.7312 9.93031C48.1248 8.99539 47.2278 8.52794 46.0402 8.52794C45.0547 8.52794 44.2462 8.76798 43.6145 9.24807C42.9828 9.72816 42.5279 10.6252 42.25 11.9391H40.1654C40.1654 11.08 40.2159 10.3472 40.317 9.7408C40.4433 9.13437 40.7087 8.60374 41.1129 8.14892C41.8962 7.26454 43.7913 6.82235 46.7982 6.82235C49.325 6.82235 51.2454 7.49195 52.5593 8.83115C53.8985 10.1451 54.5681 12.1286 54.5681 14.7818V25.0153H51.3465L50.0199 23.3097H49.8304C49.603 23.6634 49.2492 24.0172 48.7691 24.3709C47.91 25.0532 46.7477 25.3943 45.2821 25.3943ZM46.4192 23.4992C46.9498 23.4992 47.4047 23.3981 47.7837 23.196C48.1627 22.9686 48.5291 22.6654 48.8828 22.2863C49.2113 21.9326 49.464 21.5157 49.6409 21.0356V16.2978H49.0723C47.2783 16.2978 45.977 16.6263 45.1684 17.2833C44.3599 17.915 43.9556 18.9131 43.9556 20.2775C43.9556 21.3135 44.1704 22.1095 44.5999 22.6654C45.0295 23.2213 45.6359 23.4992 46.4192 23.4992Z" fill="var(--fill-0, #303030)"/>
<path d="M67.0035 25.3943C65.0579 25.3943 63.4028 24.9774 62.0384 24.1435C60.6739 23.3097 59.6379 22.1979 58.9304 20.8082C58.2482 19.3932 57.907 17.8265 57.907 16.1083C57.907 14.3901 58.2482 12.8361 58.9304 11.4464C59.6379 10.0314 60.6739 8.90695 62.0384 8.07311C63.4028 7.23927 65.0579 6.82235 67.0035 6.82235C70.0357 6.82235 71.9939 7.26454 72.8783 8.14892C73.3079 8.57847 73.5732 9.147 73.6742 9.8545C73.7753 10.562 73.8259 11.7622 73.8259 13.4552H72.6888C72.5877 11.8633 72.095 10.6504 71.2106 9.8166C70.3262 8.95749 69.1134 8.52794 67.572 8.52794C66.1823 8.52794 65.0705 9.17227 64.2367 10.4609C63.4281 11.7243 63.0238 13.6068 63.0238 16.1083C63.0238 21.1619 64.6031 23.6887 67.7615 23.6887C68.9744 23.6887 69.9851 23.4234 70.7937 22.8928C71.6275 22.3369 72.4235 21.5536 73.1815 20.5428L74.3565 21.4146C73.6237 22.5517 72.7014 23.4992 71.5896 24.2572C70.4778 25.0153 68.9491 25.3943 67.0035 25.3943Z" fill="var(--fill-0, #303030)"/>
<path d="M77.6196 4.92725C77.6196 3.63859 77.4427 2.69104 77.089 2.08461C76.7352 1.45291 76.0277 1.13706 74.9665 1.13706H74.5874V0H79.1357C80.0453 0 80.7402 0.151609 81.2203 0.454825C81.7004 0.758039 82.0415 1.2634 82.2436 1.9709C82.4458 2.65314 82.5469 3.63859 82.5469 4.92725V8.26262C82.7743 8.08575 83.1659 7.8457 83.7218 7.54248C84.7325 7.06239 85.7306 6.82235 86.7161 6.82235C88.7628 6.82235 90.4684 7.35298 91.8328 8.41423C93.2226 9.45022 93.9174 11.2316 93.9174 13.7584V25.0153H88.9902V13.9479C88.9902 12.1286 88.6617 10.8021 88.0047 9.96821C87.373 9.13437 86.5645 8.71745 85.579 8.71745C84.8968 8.71745 84.1766 8.94486 83.4186 9.39968C83.1154 9.57655 82.8248 9.79133 82.5469 10.044V25.0153H77.6196V4.92725Z" fill="var(--fill-0, #303030)"/>
<path d="M105.779 32.5957C102.898 32.5957 100.624 32.1282 98.9563 31.1933C97.3139 30.2836 96.4927 28.7928 96.4927 26.7209C96.4927 25.4575 96.998 24.4088 98.0088 23.575C99.0195 22.7412 100.22 22.1474 101.609 21.7936C100.472 21.4399 99.9039 20.745 99.9039 19.709C99.9039 18.8499 100.409 18.2182 101.42 17.8139C100.333 17.4349 99.4238 16.7779 98.691 15.843C97.9835 14.9081 97.6297 13.8721 97.6297 12.7351C97.6297 10.6631 98.3625 9.15963 99.8281 8.22472C101.319 7.28981 103.302 6.82235 105.779 6.82235H113.738V7.8457L110.327 8.30053C111.388 8.70481 112.247 9.32388 112.904 10.1577C113.586 10.9916 113.928 11.8507 113.928 12.7351C113.928 14.807 113.22 16.2978 111.805 17.2075C110.415 18.1171 108.407 18.5719 105.779 18.5719C104.465 18.5719 103.505 18.6478 102.898 18.7994C102.292 18.9257 101.988 19.2289 101.988 19.709C101.988 20.1133 102.292 20.3786 102.898 20.5049C103.505 20.6313 104.465 20.7071 105.779 20.7324C108.508 20.7829 110.731 21.3262 112.449 22.3621C114.193 23.3729 115.065 24.8258 115.065 26.7209C115.065 28.7928 114.231 30.2836 112.563 31.1933C110.921 32.1282 108.659 32.5957 105.779 32.5957ZM105.779 17.0559C107.8 17.0559 108.811 15.6156 108.811 12.7351C108.811 11.32 108.533 10.2335 107.977 9.47548C107.421 8.71745 106.688 8.33843 105.779 8.33843C104.844 8.33843 104.098 8.70481 103.542 9.43758C103.012 10.1704 102.747 11.2695 102.747 12.7351C102.747 15.6156 103.757 17.0559 105.779 17.0559ZM105.779 30.8901C107.093 30.8901 108.116 30.5363 108.849 29.8288C109.581 29.1466 109.948 28.1106 109.948 26.7209C109.948 25.6091 109.594 24.6868 108.887 23.954C108.204 23.196 107.269 22.7033 106.082 22.4758L104.3 22.2863C103.416 22.6654 102.747 23.2086 102.292 23.9161C101.837 24.6236 101.609 25.5585 101.609 26.7209C101.609 28.1106 101.976 29.1466 102.709 29.8288C103.441 30.5363 104.465 30.8901 105.779 30.8901Z" fill="var(--fill-0, #303030)"/>
<path d="M130.242 7.58039C130.697 7.90887 131.025 8.27525 131.227 8.67954C131.43 9.05856 131.531 9.26071 131.531 9.28597L129.598 10.7642C129.421 10.5367 129.193 10.2967 128.915 10.044C128.36 9.53865 127.715 9.28597 126.982 9.28597C125.517 9.28597 124.392 9.67763 123.609 10.4609L123.685 11.0295C123.735 11.4843 123.761 11.9012 123.761 12.2802V25.0153H118.834V12.1286C118.834 10.84 118.657 9.89241 118.303 9.28597C117.974 8.65428 117.28 8.33843 116.218 8.33843H115.839V7.20137H119.592C120.451 7.20137 121.12 7.31507 121.6 7.54248C122.106 7.74463 122.497 8.09838 122.775 8.60374C124.14 7.41615 125.732 6.82235 127.551 6.82235C128.637 6.82235 129.534 7.07503 130.242 7.58039Z" fill="var(--fill-0, #303030)"/>
<path d="M139.186 25.3943C137.139 25.3943 135.547 24.9395 134.41 24.0298C133.298 23.0949 132.742 21.8441 132.742 20.2775C132.742 19.0141 133.033 17.9655 133.614 17.1317C134.221 16.2978 135.269 15.6661 136.76 15.2366C138.251 14.807 140.323 14.5922 142.976 14.5922H143.544C143.544 12.3939 143.241 10.84 142.635 9.93031C142.028 8.99539 141.131 8.52794 139.944 8.52794C138.958 8.52794 138.15 8.76798 137.518 9.24807C136.886 9.72816 136.431 10.6252 136.154 11.9391H134.069C134.069 11.08 134.119 10.3472 134.221 9.7408C134.347 9.13437 134.612 8.60374 135.016 8.14892C135.8 7.26454 137.695 6.82235 140.702 6.82235C143.229 6.82235 145.149 7.49195 146.463 8.83115C147.802 10.1451 148.472 12.1286 148.472 14.7818V25.0153H145.25L143.923 23.3097H143.734C143.506 23.6634 143.153 24.0172 142.673 24.3709C141.814 25.0532 140.651 25.3943 139.186 25.3943ZM140.323 23.4992C140.853 23.4992 141.308 23.3981 141.687 23.196C142.066 22.9686 142.433 22.6654 142.786 22.2863C143.115 21.9326 143.368 21.5157 143.544 21.0356V16.2978H142.976C141.182 16.2978 139.881 16.6263 139.072 17.2833C138.263 17.915 137.859 18.9131 137.859 20.2775C137.859 21.3135 138.074 22.1095 138.503 22.6654C138.933 23.2213 139.539 23.4992 140.323 23.4992Z" fill="var(--fill-0, #303030)"/>
<path d="M153.478 12.1286C153.478 10.84 153.301 9.89241 152.948 9.28597C152.619 8.65428 151.924 8.33843 150.863 8.33843H150.484V7.20137H154.236C155.879 7.20137 156.953 7.68146 157.458 8.64164H157.61C158.999 7.42878 160.591 6.82235 162.385 6.82235C163.623 6.82235 164.697 7.06239 165.607 7.54248C166.542 7.99731 167.211 8.4774 167.616 8.98276C168.222 8.32579 168.942 7.8078 169.776 7.42878C170.61 7.02449 171.684 6.82235 172.998 6.82235C177.42 6.82235 179.631 9.147 179.631 13.7963V25.0153H174.703V13.7584C174.703 12.0149 174.425 10.7389 173.869 9.93031C173.314 9.12173 172.581 8.71745 171.671 8.71745C170.989 8.71745 170.357 8.85642 169.776 9.13437C169.195 9.38705 168.74 9.72816 168.412 10.1577C168.462 10.2588 168.563 10.5367 168.715 10.9916C168.917 11.7496 169.018 12.6845 169.018 13.7963V25.0153H164.091V13.7584C164.091 12.0149 163.813 10.7389 163.257 9.93031C162.701 9.12173 161.968 8.71745 161.059 8.71745C160.528 8.71745 159.972 8.88169 159.391 9.21017C158.835 9.51338 158.418 9.8545 158.14 10.2335L158.254 10.7642C158.355 11.0674 158.405 11.5601 158.405 12.2423V25.0153H153.478V12.1286Z" fill="var(--fill-0, #303030)"/>
</g>
</svg>
