<svg preserveAspectRatio="none" width="100%" height="100%" overflow="visible" style="display: block;" viewBox="0 0 141.138 25.6109" fill="none" xmlns="http://www.w3.org/2000/svg">
<g id="Teachgram">
<path d="M6.4325 1.34011H4.31811C3.20632 1.34011 2.35263 1.61805 1.75703 2.17395C1.18128 2.72984 0.893403 3.6431 0.893403 4.91371H0V2.38241C0 0.794136 0.843769 0 2.53131 0H16.528V1.34011H10.3039V19.6549H6.4325V1.34011Z" fill="var(--fill-0, #303030)"/>
<path d="M22.4521 19.9527C21.0822 19.9527 19.8811 19.635 18.8487 18.9997C17.8163 18.3644 17.0123 17.5008 16.4365 16.4088C15.8806 15.297 15.6027 14.0463 15.6027 12.6565C15.6027 11.108 15.8806 9.78772 16.4365 8.69579C17.0123 7.60385 17.7965 6.77993 18.7891 6.22404C19.7818 5.64829 20.9035 5.36042 22.1543 5.36042C23.3852 5.36042 24.497 5.60858 25.4897 6.10492C26.4823 6.60125 27.2665 7.30605 27.8423 8.21931C28.418 9.11271 28.7059 10.1451 28.7059 11.3164C28.7059 11.6936 28.6861 12.1205 28.6464 12.597L28.5868 13.1926H19.623C19.623 15.0787 19.9109 16.4585 20.4866 17.332C21.0624 18.1857 21.8664 18.6126 22.8988 18.6126C23.8518 18.6126 24.6459 18.4041 25.2812 17.9872C25.9364 17.5504 26.5617 16.9349 27.1574 16.1408L28.0805 16.8258C27.5048 17.7192 26.7801 18.4637 25.9066 19.0593C25.0529 19.6549 23.9014 19.9527 22.4521 19.9527ZM24.6856 11.8525C24.6856 9.98626 24.4672 8.66601 24.0304 7.89172C23.5937 7.09759 22.9683 6.70052 22.1543 6.70052C21.3999 6.70052 20.7844 7.10752 20.3079 7.9215C19.8513 8.71564 19.623 10.026 19.623 11.8525H24.6856Z" fill="var(--fill-0, #303030)"/>
<path d="M35.5788 19.9527C33.9707 19.9527 32.7199 19.5953 31.8265 18.8806C30.953 18.146 30.5162 17.1633 30.5162 15.9323C30.5162 14.9397 30.7445 14.1158 31.2012 13.4606C31.6776 12.8054 32.5016 12.3091 33.6729 11.9716C34.8443 11.6341 36.4722 11.4653 38.5568 11.4653H39.0035C39.0035 9.73809 38.7653 8.51711 38.2888 7.80238C37.8123 7.06781 37.1075 6.70052 36.1744 6.70052C35.4002 6.70052 34.7648 6.88913 34.2685 7.26634C33.7722 7.64356 33.4148 8.34835 33.1964 9.38073H31.5585C31.5585 8.70571 31.5982 8.12997 31.6776 7.65348C31.7769 7.177 31.9854 6.76008 32.303 6.40272C32.9185 5.70785 34.4075 5.36042 36.77 5.36042C38.7554 5.36042 40.2642 5.88653 41.2966 6.93876C42.3488 7.97114 42.875 9.52963 42.875 11.6142V19.6549H40.3437L39.3013 18.3148H39.1524C38.9738 18.5927 38.6958 18.8707 38.3186 19.1486C37.6436 19.6846 36.7303 19.9527 35.5788 19.9527ZM36.4722 18.4637C36.8892 18.4637 37.2465 18.3842 37.5443 18.2254C37.8421 18.0467 38.13 17.8085 38.4079 17.5107C38.666 17.2327 38.8646 16.9052 39.0035 16.528V12.8054H38.5568C37.1473 12.8054 36.1248 13.0635 35.4895 13.5797C34.8542 14.0761 34.5365 14.8603 34.5365 15.9323C34.5365 16.7463 34.7053 17.3717 35.0428 17.8085C35.3803 18.2453 35.8568 18.4637 36.4722 18.4637Z" fill="var(--fill-0, #303030)"/>
<path d="M52.6456 19.9527C51.1169 19.9527 49.8165 19.6251 48.7444 18.9699C47.6723 18.3148 46.8584 17.4412 46.3025 16.3493C45.7664 15.2375 45.4984 14.0066 45.4984 12.6565C45.4984 11.3065 45.7664 10.0855 46.3025 8.99359C46.8584 7.8818 47.6723 6.99832 48.7444 6.34316C49.8165 5.688 51.1169 5.36042 52.6456 5.36042C55.028 5.36042 56.5667 5.70785 57.2615 6.40272C57.599 6.74023 57.8075 7.18693 57.8869 7.74282C57.9663 8.29872 58.006 9.24176 58.006 10.5719H57.1126C57.0332 9.32117 56.6461 8.3682 55.9512 7.71304C55.2563 7.03803 54.3034 6.70052 53.0923 6.70052C52.0004 6.70052 51.1268 7.20678 50.4717 8.21931C49.8364 9.21197 49.5187 10.6911 49.5187 12.6565C49.5187 16.6272 50.7595 18.6126 53.2412 18.6126C54.1942 18.6126 54.9883 18.4041 55.6236 17.9872C56.2788 17.5504 56.9042 16.9349 57.4998 16.1408L58.423 16.8258C57.8472 17.7192 57.1226 18.4637 56.249 19.0593C55.3755 19.6549 54.1743 19.9527 52.6456 19.9527Z" fill="var(--fill-0, #303030)"/>
<path d="M60.9868 3.87141C60.9868 2.85889 60.8479 2.11439 60.5699 1.63791C60.292 1.14157 59.7361 0.893403 58.9022 0.893403H58.6044V0H62.178C62.8928 0 63.4387 0.119121 63.8159 0.357362C64.1932 0.595602 64.4612 0.99267 64.62 1.54856C64.7788 2.08461 64.8582 2.85889 64.8582 3.87141V6.49206C65.0369 6.35309 65.3447 6.16448 65.7814 5.92624C66.5756 5.54902 67.3598 5.36042 68.1341 5.36042C69.7422 5.36042 71.0823 5.77734 72.1544 6.61118C73.2463 7.42517 73.7923 8.82483 73.7923 10.8102V19.6549H69.9209V10.9591C69.9209 9.52963 69.6628 8.48733 69.1466 7.83216C68.6502 7.177 68.0149 6.84942 67.2407 6.84942C66.7046 6.84942 66.1388 7.0281 65.5432 7.38546C65.305 7.52444 65.0766 7.69319 64.8582 7.89172V19.6549H60.9868V3.87141Z" fill="var(--fill-0, #303030)"/>
<path d="M83.1118 25.6109C80.8485 25.6109 79.0617 25.2436 77.7514 24.509C76.4609 23.7943 75.8157 22.6229 75.8157 20.995C75.8157 20.0023 76.2128 19.1784 77.0069 18.5232C77.801 17.8681 78.7441 17.4015 79.836 17.1236C78.9426 16.8456 78.4959 16.2996 78.4959 15.4856C78.4959 14.8106 78.893 14.3143 79.6871 13.9966C78.8334 13.6988 78.1187 13.1827 77.5429 12.4481C76.987 11.7135 76.7091 10.8995 76.7091 10.0061C76.7091 8.37813 77.2848 7.19686 78.4363 6.46228C79.6077 5.7277 81.1662 5.36042 83.1118 5.36042H89.3656V6.16448L86.6854 6.52184C87.5193 6.8395 88.1943 7.3259 88.7105 7.98106C89.2465 8.63623 89.5145 9.31124 89.5145 10.0061C89.5145 11.6341 88.9586 12.8054 87.8468 13.5202C86.7549 14.2349 85.1766 14.5922 83.1118 14.5922C82.0794 14.5922 81.325 14.6518 80.8485 14.7709C80.372 14.8702 80.1338 15.1084 80.1338 15.4856C80.1338 15.8033 80.372 16.0118 80.8485 16.111C81.325 16.2103 82.0794 16.2699 83.1118 16.2897C85.256 16.3294 87.0031 16.7563 88.3531 17.5703C89.723 18.3644 90.4079 19.506 90.4079 20.995C90.4079 22.6229 89.7528 23.7943 88.4424 24.509C87.152 25.2436 85.3751 25.6109 83.1118 25.6109ZM83.1118 13.401C84.7001 13.401 85.4942 12.2694 85.4942 10.0061C85.4942 8.89432 85.2758 8.04063 84.8391 7.44502C84.4023 6.84942 83.8265 6.55162 83.1118 6.55162C82.3772 6.55162 81.7916 6.8395 81.3548 7.41524C80.9379 7.99099 80.7294 8.85461 80.7294 10.0061C80.7294 12.2694 81.5235 13.401 83.1118 13.401ZM83.1118 24.2708C84.1442 24.2708 84.9483 23.9928 85.524 23.4369C86.0998 22.9009 86.3876 22.0869 86.3876 20.995C86.3876 20.1214 86.1097 19.3968 85.5538 18.821C85.0177 18.2254 84.2832 17.8383 83.3501 17.6596L81.9504 17.5107C81.2555 17.8085 80.7294 18.2353 80.3721 18.7912C80.0147 19.3471 79.836 20.0817 79.836 20.995C79.836 22.0869 80.1239 22.9009 80.6996 23.4369C81.2754 23.9928 82.0794 24.2708 83.1118 24.2708Z" fill="var(--fill-0, #303030)"/>
<path d="M102.333 5.95602C102.69 6.21411 102.948 6.50199 103.107 6.81964C103.266 7.11744 103.346 7.27627 103.346 7.29612L101.827 8.45755C101.688 8.27887 101.509 8.09026 101.291 7.89172C100.854 7.49466 100.348 7.29612 99.7719 7.29612C98.6204 7.29612 97.7369 7.60385 97.1215 8.21931L97.181 8.66601C97.2208 9.02337 97.2406 9.35095 97.2406 9.64875V19.6549H93.3692V9.52963C93.3692 8.51711 93.2302 7.7726 92.9523 7.29612C92.6942 6.79979 92.1482 6.55162 91.3144 6.55162H91.0166V5.65822H93.9648C94.6398 5.65822 95.1659 5.74756 95.5431 5.92624C95.9402 6.08506 96.2479 6.36301 96.4663 6.76008C97.5384 5.82697 98.7892 5.36042 100.219 5.36042C101.072 5.36042 101.777 5.55895 102.333 5.95602Z" fill="var(--fill-0, #303030)"/>
<path d="M109.36 19.9527C107.752 19.9527 106.501 19.5953 105.608 18.8806C104.734 18.146 104.298 17.1633 104.298 15.9323C104.298 14.9397 104.526 14.1158 104.983 13.4606C105.459 12.8054 106.283 12.3091 107.454 11.9716C108.626 11.6341 110.254 11.4653 112.338 11.4653H112.785C112.785 9.73809 112.547 8.51711 112.07 7.80238C111.594 7.06781 110.889 6.70052 109.956 6.70052C109.181 6.70052 108.546 6.88913 108.05 7.26634C107.554 7.64356 107.196 8.34835 106.978 9.38073H105.34C105.34 8.70571 105.38 8.12997 105.459 7.65348C105.558 7.177 105.767 6.76008 106.084 6.40272C106.7 5.70785 108.189 5.36042 110.551 5.36042C112.537 5.36042 114.046 5.88653 115.078 6.93876C116.13 7.97114 116.656 9.52963 116.656 11.6142V19.6549H114.125L113.083 18.3148H112.934C112.755 18.5927 112.477 18.8707 112.1 19.1486C111.425 19.6846 110.512 19.9527 109.36 19.9527ZM110.254 18.4637C110.67 18.4637 111.028 18.3842 111.326 18.2254C111.623 18.0467 111.911 17.8085 112.189 17.5107C112.447 17.2327 112.646 16.9052 112.785 16.528V12.8054H112.338C110.929 12.8054 109.906 13.0635 109.271 13.5797C108.636 14.0761 108.318 14.8603 108.318 15.9323C108.318 16.7463 108.487 17.3717 108.824 17.8085C109.162 18.2453 109.638 18.4637 110.254 18.4637Z" fill="var(--fill-0, #303030)"/>
<path d="M120.59 9.52963C120.59 8.51711 120.451 7.7726 120.173 7.29612C119.915 6.79979 119.369 6.55162 118.535 6.55162H118.237V5.65822H121.186C122.476 5.65822 123.32 6.03543 123.717 6.78986H123.836C124.928 5.8369 126.179 5.36042 127.588 5.36042C128.561 5.36042 129.405 5.54902 130.12 5.92624C130.854 6.2836 131.38 6.66081 131.698 7.05788C132.175 6.54169 132.74 6.1347 133.396 5.8369C134.051 5.51924 134.894 5.36042 135.927 5.36042C139.401 5.36042 141.138 7.18693 141.138 10.84V19.6549H137.267V10.8102C137.267 9.44029 137.049 8.43769 136.612 7.80238C136.175 7.16708 135.599 6.84942 134.885 6.84942C134.348 6.84942 133.852 6.95862 133.396 7.177C132.939 7.37554 132.582 7.64356 132.323 7.98106C132.363 8.06048 132.443 8.27887 132.562 8.63623C132.72 9.23183 132.8 9.9664 132.8 10.84V19.6549H128.928V10.8102C128.928 9.44029 128.71 8.43769 128.273 7.80238C127.837 7.16708 127.261 6.84942 126.546 6.84942C126.129 6.84942 125.692 6.97847 125.236 7.23656C124.799 7.4748 124.471 7.74282 124.253 8.04063L124.342 8.45755C124.422 8.69579 124.461 9.08293 124.461 9.61897V19.6549H120.59V9.52963Z" fill="var(--fill-0, #303030)"/>
</g>
</svg>
