<svg preserveAspectRatio="none" width="100%" height="100%" overflow="visible" style="display: block;" viewBox="0 0 242.674 242" fill="none" xmlns="http://www.w3.org/2000/svg">
<g id="Group 8034">
<path id="Rectangle 170" d="M0 78.5C0 35.1456 35.2435 0 78.7187 0H121.337V121H0V78.5Z" fill="var(--fill-0, #F37671)" fill-opacity="0.5"/>
<path id="Rectangle 170 (Stroke)" fill-rule="evenodd" clip-rule="evenodd" d="M120.334 1H78.7187C35.7974 1 1.00279 35.6979 1.00279 78.5V120H120.334V1ZM78.7187 0C35.2435 0 0 35.1456 0 78.5V121H121.337V0H78.7187Z" fill="var(--fill-0, #F37671)"/>
<path id="Rectangle 171" d="M163.955 121C207.431 121 242.674 156.146 242.674 199.5L242.674 242L121.337 242L121.337 121L163.955 121Z" fill="var(--fill-0, #F37671)" fill-opacity="0.5"/>
<path id="Rectangle 171 (Stroke)" fill-rule="evenodd" clip-rule="evenodd" d="M241.671 241L241.671 199.5C241.671 156.698 206.877 122 163.955 122L122.34 122L122.34 241L241.671 241ZM242.674 199.5C242.674 156.146 207.431 121 163.955 121L121.337 121L121.337 242L242.674 242L242.674 199.5Z" fill="var(--fill-0, #F37671)"/>
</g>
</svg>
