<svg preserveAspectRatio="none" width="100%" height="100%" overflow="visible" style="display: block;" viewBox="0 0 26.8779 13.5534" fill="none" xmlns="http://www.w3.org/2000/svg">
<g id="Group 7987">
<path id="Union" fill-rule="evenodd" clip-rule="evenodd" d="M10.108 6.20226C10.108 8.359 8.35966 10.1074 6.20291 10.1074C4.04617 10.1074 2.29779 8.359 2.29779 6.20226C2.29779 4.04552 4.04617 2.29713 6.20291 2.29713C8.35966 2.29713 10.108 4.04552 10.108 6.20226ZM12.2236 7.6982C12.3659 7.1234 12.8467 6.66169 13.4389 6.66169C14.0311 6.66169 14.5119 7.1234 14.6542 7.6982C15.3235 10.401 17.7652 12.4045 20.6749 12.4045C22.1552 12.4045 23.5145 11.8859 24.5808 11.0204V12.4048C24.5808 13.0391 25.095 13.5533 25.7293 13.5533C26.3637 13.5533 26.8779 13.0391 26.8779 12.4048V6.66193C26.8779 6.61367 26.8749 6.5661 26.8692 6.5194C26.8744 6.41435 26.8771 6.30862 26.8771 6.20226C26.8771 2.77685 24.1003 0 20.6749 0C18.5863 0 16.7389 1.03232 15.615 2.61455C15.0998 3.33972 14.3284 3.90513 13.4389 3.90513C12.5494 3.90513 11.7779 3.33972 11.2628 2.61455C10.1389 1.03232 8.29147 0 6.20291 0C2.7775 0 0.000651647 2.77685 0.000651647 6.20226C0.000651647 9.62768 2.7775 12.4045 6.20291 12.4045C9.11255 12.4045 11.5542 10.401 12.2236 7.6982ZM24.58 6.20226C24.58 8.359 22.8316 10.1074 20.6749 10.1074C18.5181 10.1074 16.7697 8.359 16.7697 6.20226C16.7697 4.04552 18.5181 2.29713 20.6749 2.29713C22.8316 2.29713 24.58 4.04552 24.58 6.20226Z" fill="var(--fill-0, white)"/>
<g id="Ellipse 26">
<mask id="path-2-inside-1_3021_92" fill="white">
<path d="M0.191918 4.67181C0.550001 3.26557 1.38983 2.0294 2.56524 1.17843L3.95743 3.10142C3.23193 3.62666 2.71356 4.38966 2.49254 5.25764L0.191918 4.67181Z"/>
</mask>
<path d="M0.191918 4.67181C0.550001 3.26557 1.38983 2.0294 2.56524 1.17843L3.95743 3.10142C3.23193 3.62666 2.71356 4.38966 2.49254 5.25764L0.191918 4.67181Z" stroke="var(--stroke-0, #EE5A8F)" stroke-width="14.2748" mask="url(#path-2-inside-1_3021_92)"/>
</g>
</g>
</svg>
