<svg preserveAspectRatio="none" width="100%" height="100%" overflow="visible" style="display: block;" viewBox="0 0 31 31" fill="none" xmlns="http://www.w3.org/2000/svg">
<path id="Rectangle 102 (Stroke)" fill-rule="evenodd" clip-rule="evenodd" d="M24.2609 1.34783H6.73913C3.7616 1.34783 1.34783 3.7616 1.34783 6.73913V24.2609C1.34783 27.2384 3.7616 29.6522 6.73913 29.6522H24.2609C27.2384 29.6522 29.6522 27.2384 29.6522 24.2609V6.73913C29.6522 3.7616 27.2384 1.34783 24.2609 1.34783ZM6.73913 0C3.01721 0 0 3.01721 0 6.73913V24.2609C0 27.9828 3.01721 31 6.73913 31H24.2609C27.9828 31 31 27.9828 31 24.2609V6.73913C31 3.01721 27.9828 0 24.2609 0H6.73913Z" fill="var(--fill-0, #6A6F73)"/>
</svg>
