<svg preserveAspectRatio="none" width="100%" height="100%" overflow="visible" style="display: block;" viewBox="0 0 50.354 25.3913" fill="none" xmlns="http://www.w3.org/2000/svg">
<g id="Group 7987">
<path id="Union" fill-rule="evenodd" clip-rule="evenodd" d="M18.9363 11.6197C18.9363 15.6602 15.6607 18.9358 11.6202 18.9358C7.5796 18.9358 4.30407 15.6602 4.30407 11.6197C4.30407 7.57911 7.5796 4.30358 11.6202 4.30358C15.6607 4.30358 18.9363 7.57911 18.9363 11.6197ZM22.8996 14.4223C23.1663 13.3454 24.067 12.4804 25.1764 12.4804C26.2859 12.4804 27.1866 13.3454 27.4533 14.4223C28.7073 19.4857 33.2816 23.2393 38.7327 23.2393C41.5062 23.2393 44.0527 22.2677 46.0504 20.6461V23.2395C46.0504 24.4279 47.0138 25.3913 48.2022 25.3913C49.3906 25.3913 50.354 24.4279 50.354 23.2395V12.4806C50.354 12.39 50.3484 12.3007 50.3375 12.213C50.3474 12.0165 50.3524 11.8186 50.3524 11.6197C50.3524 5.20231 45.1501 0 38.7327 0C34.8199 0 31.3588 1.93402 29.2532 4.89826C28.2882 6.25683 26.8429 7.31609 25.1764 7.31609C23.51 7.31609 22.0647 6.25683 21.0997 4.89826C18.9941 1.93402 15.533 0 11.6202 0C5.20279 0 0.000487434 5.20231 0.000487434 11.6197C0.000487434 18.037 5.20279 23.2393 11.6202 23.2393C17.0713 23.2393 21.6456 19.4857 22.8996 14.4223ZM46.0488 11.6197C46.0488 15.6602 42.7733 18.9358 38.7327 18.9358C34.6922 18.9358 31.4166 15.6602 31.4166 11.6197C31.4166 7.57911 34.6922 4.30358 38.7327 4.30358C42.7733 4.30358 46.0488 7.57911 46.0488 11.6197Z" fill="var(--fill-0, white)"/>
<g id="Ellipse 26">
<mask id="path-2-inside-1_3011_12" fill="white">
<path d="M0.35933 8.75252C1.03018 6.11798 2.60356 3.80207 4.80565 2.20782L7.41386 5.81046C6.05466 6.79448 5.08352 8.22393 4.66945 9.85004L0.35933 8.75252Z"/>
</mask>
<path d="M0.35933 8.75252C1.03018 6.11798 2.60356 3.80207 4.80565 2.20782L7.41386 5.81046C6.05466 6.79448 5.08352 8.22393 4.66945 9.85004L0.35933 8.75252Z" stroke="var(--stroke-0, #EE5A8F)" stroke-width="20" mask="url(#path-2-inside-1_3011_12)"/>
</g>
</g>
</svg>
