<svg preserveAspectRatio="none" width="100%" height="100%" overflow="visible" style="display: block;" viewBox="0 0 298.888 297.891" fill="none" xmlns="http://www.w3.org/2000/svg">
<g id="Group 8035">
<path id="Rectangle 170" d="M0 96.9567C0 43.409 43.5299 0 97.2268 0H149.865V149.449H0V96.9567Z" fill="var(--fill-0, #F37671)" fill-opacity="0.1"/>
<path id="Rectangle 170 (Stroke)" fill-rule="evenodd" clip-rule="evenodd" d="M148.627 1.23512H97.2268C44.2139 1.23512 1.23856 44.0911 1.23856 96.9567V148.214H148.627V1.23512ZM97.2268 0C43.5299 0 0 43.409 0 96.9567V149.449H149.865V0H97.2268Z" fill="var(--fill-0, #F37671)"/>
<path id="Rectangle 171" d="M201.661 148.442C255.358 148.442 298.888 191.851 298.888 245.399L298.888 297.891L149.023 297.891L149.023 148.442L201.661 148.442Z" fill="var(--fill-0, #F37671)" fill-opacity="0.1"/>
<path id="Rectangle 171 (Stroke)" fill-rule="evenodd" clip-rule="evenodd" d="M297.65 296.656L297.65 245.399C297.65 192.533 254.674 149.677 201.661 149.677L150.261 149.677L150.261 296.656L297.65 296.656ZM298.888 245.399C298.888 191.851 255.358 148.442 201.661 148.442L149.023 148.442L149.023 297.891L298.888 297.891L298.888 245.399Z" fill="var(--fill-0, #F37671)"/>
</g>
</svg>
