<svg preserveAspectRatio="none" width="100%" height="100%" overflow="visible" style="display: block;" viewBox="0 0 17 17" fill="none" xmlns="http://www.w3.org/2000/svg">
<g id="Group 8000">
<path id="Union" fill-rule="evenodd" clip-rule="evenodd" d="M0.497919 2.90208C-0.165973 2.23819 -0.165973 1.16181 0.497919 0.497918C1.16181 -0.165973 2.23819 -0.165973 2.90208 0.497918L8.5 6.09584L14.0979 0.497918C14.7618 -0.165973 15.8382 -0.165973 16.5021 0.497918C17.166 1.16181 17.166 2.23819 16.5021 2.90208L10.9042 8.5L16.5021 14.0979C17.166 14.7618 17.166 15.8382 16.5021 16.5021C15.8382 17.166 14.7618 17.166 14.0979 16.5021L8.5 10.9042L2.90208 16.5021C2.23819 17.166 1.16181 17.166 0.497919 16.5021C-0.165973 15.8382 -0.165973 14.7618 0.497919 14.0979L6.09584 8.5L0.497919 2.90208Z" fill="var(--fill-0, #F37671)"/>
</g>
</svg>
