<svg preserveAspectRatio="none" width="100%" height="100%" overflow="visible" style="display: block;" viewBox="0 0 253.391 31" fill="none" xmlns="http://www.w3.org/2000/svg">
<g id="Group 8030">
<g id="Group 8024">
<path id="Rectangle 101 (Stroke)" fill-rule="evenodd" clip-rule="evenodd" d="M24.2609 1.34783H6.73913C3.7616 1.34783 1.34783 3.7616 1.34783 6.73913V24.2609C1.34783 27.2384 3.7616 29.6522 6.73913 29.6522H24.2609C27.2384 29.6522 29.6522 27.2384 29.6522 24.2609V6.73913C29.6522 3.7616 27.2384 1.34783 24.2609 1.34783ZM6.73913 0C3.01721 0 0 3.01721 0 6.73913V24.2609C0 27.9828 3.01721 31 6.73913 31H24.2609C27.9828 31 31 27.9828 31 24.2609V6.73913C31 3.01721 27.9828 0 24.2609 0H6.73913Z" fill="var(--fill-0, #C4C4C4)"/>
<g id="Group 156">
<path id="Vector 79 (Stroke)" fill-rule="evenodd" clip-rule="evenodd" d="M15.3027 10.3061C15.5659 10.5693 15.5659 10.996 15.3027 11.2591L10.9301 15.6317C10.6545 15.9074 10.6695 16.3587 10.9629 16.6154L15.27 20.3841C15.5501 20.6292 15.5785 21.055 15.3334 21.3351C15.0883 21.6152 14.6625 21.6436 14.3824 21.3985L10.0753 17.6298C9.1952 16.8597 9.15011 15.5056 9.97708 14.6787L14.3497 10.3061C14.6129 10.0429 15.0395 10.0429 15.3027 10.3061Z" fill="var(--fill-0, #C4C4C4)"/>
<path id="Vector 80 (Stroke)" fill-rule="evenodd" clip-rule="evenodd" d="M9.43508 16.174C9.43508 15.8018 9.7368 15.5001 10.109 15.5001H20.2177C20.5899 15.5001 20.8916 15.8018 20.8916 16.174C20.8916 16.5462 20.5899 16.8479 20.2177 16.8479H10.109C9.7368 16.8479 9.43508 16.5462 9.43508 16.174Z" fill="var(--fill-0, #C4C4C4)"/>
</g>
</g>
<g id="Group 8026">
<path id="Rectangle 101" d="M44.4783 6.73913C44.4783 3.01721 47.4955 0 51.2174 0H68.7391C72.461 0 75.4783 3.01721 75.4783 6.73913V24.2609C75.4783 27.9828 72.461 31 68.7391 31H51.2174C47.4955 31 44.4783 27.9828 44.4783 24.2609V6.73913Z" fill="var(--fill-0, #F37671)"/>
</g>
<g id="Group 8027">
<path id="Rectangle 101 (Stroke)_2" fill-rule="evenodd" clip-rule="evenodd" d="M113.217 1.34783H95.6957C92.7181 1.34783 90.3044 3.7616 90.3044 6.73913V24.2609C90.3044 27.2384 92.7181 29.6522 95.6957 29.6522H113.217C116.195 29.6522 118.609 27.2384 118.609 24.2609V6.73913C118.609 3.7616 116.195 1.34783 113.217 1.34783ZM95.6957 0C91.9737 0 88.9565 3.01721 88.9565 6.73913V24.2609C88.9565 27.9828 91.9737 31 95.6957 31H113.217C116.939 31 119.957 27.9828 119.957 24.2609V6.73913C119.957 3.01721 116.939 0 113.217 0H95.6957Z" fill="var(--fill-0, #C4C4C4)"/>
</g>
<g id="Group 8028">
<path id="Rectangle 101 (Stroke)_3" fill-rule="evenodd" clip-rule="evenodd" d="M157.696 1.34783H140.174C137.196 1.34783 134.783 3.7616 134.783 6.73913V24.2609C134.783 27.2384 137.196 29.6522 140.174 29.6522H157.696C160.673 29.6522 163.087 27.2384 163.087 24.2609V6.73913C163.087 3.7616 160.673 1.34783 157.696 1.34783ZM140.174 0C136.452 0 133.435 3.01721 133.435 6.73913V24.2609C133.435 27.9828 136.452 31 140.174 31H157.696C161.418 31 164.435 27.9828 164.435 24.2609V6.73913C164.435 3.01721 161.418 0 157.696 0H140.174Z" fill="var(--fill-0, #C4C4C4)"/>
</g>
<g id="Group 8029">
<path id="Rectangle 101 (Stroke)_4" fill-rule="evenodd" clip-rule="evenodd" d="M202.174 1.34783H184.652C181.675 1.34783 179.261 3.7616 179.261 6.73913V24.2609C179.261 27.2384 181.675 29.6522 184.652 29.6522H202.174C205.151 29.6522 207.565 27.2384 207.565 24.2609V6.73913C207.565 3.7616 205.151 1.34783 202.174 1.34783ZM184.652 0C180.93 0 177.913 3.01721 177.913 6.73913V24.2609C177.913 27.9828 180.93 31 184.652 31H202.174C205.896 31 208.913 27.9828 208.913 24.2609V6.73913C208.913 3.01721 205.896 0 202.174 0H184.652Z" fill="var(--fill-0, #C4C4C4)"/>
</g>
<g id="Group 8025">
<path id="Rectangle 102 (Stroke)" fill-rule="evenodd" clip-rule="evenodd" d="M229.13 1.34783H246.652C249.63 1.34783 252.043 3.7616 252.043 6.73913V24.2609C252.043 27.2384 249.63 29.6522 246.652 29.6522H229.13C226.153 29.6522 223.739 27.2384 223.739 24.2609V6.73913C223.739 3.7616 226.153 1.34783 229.13 1.34783ZM246.652 0C250.374 0 253.391 3.01721 253.391 6.73913V24.2609C253.391 27.9828 250.374 31 246.652 31H229.13C225.408 31 222.391 27.9828 222.391 24.2609V6.73913C222.391 3.01721 225.408 0 229.13 0H246.652Z" fill="var(--fill-0, #C4C4C4)"/>
<g id="Group 157">
<path id="Vector 79 (Stroke)_2" fill-rule="evenodd" clip-rule="evenodd" d="M238.089 10.3061C237.825 10.5693 237.825 10.996 238.089 11.2591L242.461 15.6317C242.737 15.9074 242.722 16.3587 242.428 16.6154L238.121 20.3841C237.841 20.6292 237.813 21.055 238.058 21.3351C238.303 21.6152 238.729 21.6436 239.009 21.3985L243.316 17.6298C244.196 16.8597 244.241 15.5056 243.414 14.6787L239.042 10.3061C238.778 10.0429 238.352 10.0429 238.089 10.3061Z" fill="var(--fill-0, #C4C4C4)"/>
<path id="Vector 80 (Stroke)_2" fill-rule="evenodd" clip-rule="evenodd" d="M243.956 16.174C243.956 15.8018 243.654 15.5001 243.282 15.5001H233.174C232.801 15.5001 232.5 15.8018 232.5 16.174C232.5 16.5462 232.801 16.8479 233.174 16.8479H243.282C243.654 16.8479 243.956 16.5462 243.956 16.174Z" fill="var(--fill-0, #C4C4C4)"/>
</g>
</g>
<path id="1" d="M61.7503 9.80234V21.5652H59.9698V11.5829H59.9008L57.0865 13.4208V11.7207L60.0215 9.80234H61.7503Z" fill="var(--fill-0, white)"/>
<path id="2" d="M100.629 21.5651V20.2785L104.609 16.1546C105.034 15.7066 105.384 15.3142 105.66 14.9772C105.939 14.6364 106.148 14.3129 106.286 14.0066C106.424 13.7002 106.493 13.3748 106.493 13.0301C106.493 12.6396 106.401 12.3026 106.217 12.0193C106.033 11.7321 105.782 11.5119 105.465 11.3588C105.147 11.2018 104.789 11.1233 104.391 11.1233C103.969 11.1233 103.602 11.2094 103.288 11.3817C102.974 11.554 102.733 11.7972 102.564 12.1112C102.396 12.4252 102.311 12.7927 102.311 13.2139H100.617C100.617 12.4979 100.782 11.8719 101.111 11.3358C101.44 10.7997 101.892 10.3843 102.466 10.0894C103.041 9.79076 103.694 9.64143 104.425 9.64143C105.164 9.64143 105.815 9.78885 106.378 10.0837C106.945 10.3747 107.387 10.7729 107.705 11.2784C108.022 11.78 108.181 12.3467 108.181 12.9785C108.181 13.415 108.099 13.8419 107.934 14.2593C107.774 14.6766 107.492 15.1419 107.09 15.655C106.688 16.1642 106.129 16.7826 105.413 17.5101L103.075 19.9569V20.0431H108.371V21.5651H100.629Z" fill="var(--fill-0, #C4C4C4)"/>
<path id="3" d="M148.949 21.7259C148.16 21.7259 147.456 21.59 146.835 21.3181C146.219 21.0463 145.731 20.6691 145.371 20.1866C145.015 19.7004 144.823 19.1375 144.797 18.498H146.6C146.623 18.8465 146.74 19.149 146.95 19.4055C147.165 19.6582 147.444 19.8535 147.789 19.9914C148.134 20.1292 148.516 20.1981 148.938 20.1981C149.401 20.1981 149.811 20.1177 150.167 19.9569C150.527 19.7961 150.808 19.5721 151.011 19.2849C151.214 18.9939 151.315 18.6588 151.315 18.2798C151.315 17.8854 151.214 17.5389 151.011 17.2402C150.812 16.9377 150.519 16.7003 150.132 16.528C149.749 16.3557 149.286 16.2695 148.742 16.2695H147.749V14.8221H148.742C149.179 14.8221 149.562 14.7436 149.891 14.5867C150.224 14.4297 150.485 14.2114 150.672 13.9319C150.86 13.6485 150.954 13.3173 150.954 12.9382C150.954 12.5745 150.871 12.2586 150.707 11.9906C150.546 11.7187 150.316 11.5062 150.017 11.353C149.723 11.1999 149.374 11.1233 148.972 11.1233C148.589 11.1233 148.231 11.1941 147.898 11.3358C147.569 11.4736 147.301 11.6727 147.094 11.9331C146.887 12.1897 146.776 12.4979 146.761 12.8578H145.043C145.063 12.2222 145.25 11.6632 145.606 11.1807C145.966 10.6982 146.441 10.3211 147.031 10.0492C147.62 9.77736 148.275 9.64143 148.995 9.64143C149.749 9.64143 150.4 9.78885 150.948 10.0837C151.499 10.3747 151.924 10.7633 152.223 11.2496C152.525 11.7359 152.675 12.2682 152.671 12.8463C152.675 13.5049 152.491 14.064 152.12 14.5235C151.752 14.983 151.262 15.2912 150.649 15.4482V15.5401C151.43 15.6588 152.035 15.9689 152.464 16.4705C152.897 16.9722 153.111 17.5944 153.107 18.3372C153.111 18.9843 152.931 19.5644 152.568 20.0775C152.208 20.5906 151.716 20.9946 151.091 21.2894C150.467 21.5804 149.753 21.7259 148.949 21.7259Z" fill="var(--fill-0, #C4C4C4)"/>
<path id="4" d="M189.006 19.2678V17.8319L194.089 9.80234H195.221V11.916H194.503L190.867 17.671V17.7629H197.834V19.2678H189.006ZM194.583 21.5652V18.8312L194.595 18.1765V9.80234H196.278V21.5652H194.583Z" fill="var(--fill-0, #C4C4C4)"/>
</g>
</svg>
