<svg preserveAspectRatio="none" width="100%" height="100%" overflow="visible" style="display: block;" viewBox="0 0 264.417 47.9809" fill="none" xmlns="http://www.w3.org/2000/svg">
<g id="Teachgram">
<path d="M12.051 2.51063H8.0898C6.00691 2.51063 4.40755 3.03135 3.29171 4.0728C2.21307 5.11424 1.67375 6.82519 1.67375 9.20564H0V4.46334C0 1.48778 1.58077 0 4.7423 0H30.9644V2.51063H19.3039V36.8225H12.051V2.51063Z" fill="var(--fill-0, #303030)"/>
<path d="M42.0631 37.3805C39.4966 37.3805 37.2464 36.7854 35.3122 35.5951C33.3781 34.4049 31.8718 32.7869 30.7931 30.7413C29.7517 28.6584 29.231 26.3151 29.231 23.7115C29.231 20.8103 29.7517 18.3369 30.7931 16.2912C31.8718 14.2455 33.3409 12.7019 35.2007 11.6605C37.0604 10.5818 39.1619 10.0425 41.5051 10.0425C43.8112 10.0425 45.8941 10.5074 47.7538 11.4373C49.6135 12.3672 51.0827 13.6876 52.1614 15.3985C53.24 17.0723 53.7793 19.0064 53.7793 21.2009C53.7793 21.9076 53.7421 22.7072 53.6677 23.5999L53.5562 24.7157H36.7628C36.7628 28.2492 37.3022 30.8342 38.3808 32.4708C39.4594 34.0702 40.9658 34.8698 42.8999 34.8698C44.6853 34.8698 46.173 34.4793 47.3633 33.6982C48.5907 32.8799 49.7623 31.7269 50.8781 30.2391L52.6077 31.5223C51.5291 33.1961 50.1715 34.5909 48.5349 35.7067C46.9355 36.8225 44.7783 37.3805 42.0631 37.3805ZM46.2474 22.2051C46.2474 18.7088 45.8383 16.2354 45.02 14.7848C44.2017 13.297 43.0301 12.5531 41.5051 12.5531C40.0917 12.5531 38.9387 13.3156 38.046 14.8406C37.1906 16.3284 36.7628 18.7832 36.7628 22.2051H46.2474Z" fill="var(--fill-0, #303030)"/>
<path d="M66.6554 37.3805C63.6427 37.3805 61.2994 36.711 59.6257 35.372C57.9891 33.9958 57.1708 32.1546 57.1708 29.8486C57.1708 27.9889 57.5986 26.4453 58.4541 25.2179C59.3467 23.9904 60.8903 23.0606 63.0848 22.4283C65.2792 21.796 68.3292 21.4798 72.2346 21.4798H73.0715C73.0715 18.2439 72.6252 15.9564 71.7325 14.6174C70.8398 13.2412 69.5194 12.5531 67.7713 12.5531C66.3207 12.5531 65.1305 12.9065 64.2006 13.6132C63.2707 14.3199 62.6012 15.6403 62.1921 17.5744H59.1236C59.1236 16.3098 59.1979 15.2311 59.3467 14.3385C59.5327 13.4458 59.9232 12.6647 60.5183 11.9952C61.6714 10.6934 64.461 10.0425 68.8871 10.0425C72.6066 10.0425 75.4333 11.0282 77.3675 12.9995C79.3388 14.9336 80.3244 17.8534 80.3244 21.7588V36.8225H75.5821L73.6294 34.3119H73.3504C73.0157 34.8326 72.495 35.3534 71.7883 35.8741C70.5237 36.8783 68.8127 37.3805 66.6554 37.3805ZM68.3292 34.5909C69.1103 34.5909 69.7798 34.4421 70.3377 34.1445C70.8956 33.8098 71.4349 33.3635 71.9556 32.8055C72.4392 32.2848 72.8111 31.6711 73.0715 30.9644V23.9905H72.2346C69.5938 23.9905 67.6783 24.474 66.4881 25.441C65.2978 26.3709 64.7027 27.8401 64.7027 29.8486C64.7027 31.3736 65.0189 32.5452 65.6512 33.3635C66.2835 34.1817 67.1762 34.5909 68.3292 34.5909Z" fill="var(--fill-0, #303030)"/>
<path d="M98.6293 37.3805C95.7654 37.3805 93.3291 36.7668 91.3206 35.5393C89.3121 34.3119 87.7871 32.6754 86.7457 30.6297C85.7414 28.5468 85.2393 26.2407 85.2393 23.7115C85.2393 21.1823 85.7414 18.8948 86.7457 16.8491C87.7871 14.7662 89.3121 13.1111 91.3206 11.8836C93.3291 10.6562 95.7654 10.0425 98.6293 10.0425C103.093 10.0425 105.975 10.6934 107.277 11.9952C107.909 12.6275 108.3 13.4644 108.449 14.5059C108.597 15.5473 108.672 17.314 108.672 19.8061H106.998C106.849 17.4628 106.124 15.6775 104.822 14.4501C103.52 13.1854 101.735 12.5531 99.4662 12.5531C97.4205 12.5531 95.784 13.5016 94.5565 15.3985C93.3663 17.2582 92.7712 20.0292 92.7712 23.7115C92.7712 31.1504 95.0959 34.8698 99.7452 34.8698C101.531 34.8698 103.018 34.4793 104.209 33.6982C105.436 32.8799 106.608 31.7269 107.723 30.2391L109.453 31.5223C108.374 33.1961 107.017 34.5909 105.38 35.7067C103.744 36.8225 101.493 37.3805 98.6293 37.3805Z" fill="var(--fill-0, #303030)"/>
<path d="M114.256 7.25293C114.256 5.35601 113.996 3.96122 113.475 3.06855C112.954 2.13868 111.913 1.67375 110.351 1.67375H109.793V0H116.488C117.827 0 118.85 0.223169 119.556 0.669503C120.263 1.11584 120.765 1.85973 121.063 2.90117C121.36 3.90542 121.509 5.35601 121.509 7.25293V12.1626C121.844 11.9022 122.42 11.5489 123.239 11.1026C124.727 10.3959 126.196 10.0425 127.646 10.0425C130.659 10.0425 133.17 10.8236 135.178 12.3858C137.224 13.9107 138.247 16.533 138.247 20.2524V36.8225H130.994V20.5314C130.994 17.8534 130.51 15.9006 129.543 14.6732C128.613 13.4458 127.423 12.8321 125.973 12.8321C124.968 12.8321 123.908 13.1669 122.792 13.8364C122.346 14.0967 121.918 14.4129 121.509 14.7848V36.8225H114.256V7.25293Z" fill="var(--fill-0, #303030)"/>
<path d="M155.706 47.9809C151.466 47.9809 148.119 47.2928 145.664 45.9166C143.246 44.5776 142.037 42.3831 142.037 39.3332C142.037 37.4735 142.781 35.9299 144.269 34.7025C145.757 33.475 147.524 32.601 149.569 32.0803C147.896 31.5595 147.059 30.5367 147.059 29.0117C147.059 27.7471 147.803 26.8172 149.29 26.2221C147.691 25.6642 146.352 24.6971 145.273 23.3209C144.232 21.9448 143.711 20.4198 143.711 18.746C143.711 15.6961 144.79 13.483 146.947 12.1068C149.142 10.7306 152.061 10.0425 155.706 10.0425H167.423V11.5489L162.401 12.2184C163.964 12.8135 165.228 13.7248 166.195 14.9522C167.2 16.1796 167.702 17.4442 167.702 18.746C167.702 21.796 166.66 23.9905 164.577 25.3295C162.532 26.6685 159.575 27.338 155.706 27.338C153.772 27.338 152.359 27.4495 151.466 27.6727C150.574 27.8587 150.127 28.305 150.127 29.0117C150.127 29.6068 150.574 29.9974 151.466 30.1833C152.359 30.3693 153.772 30.4809 155.706 30.5181C159.723 30.5925 162.997 31.3922 165.526 32.9171C168.092 34.4049 169.375 36.5436 169.375 39.3332C169.375 42.3831 168.148 44.5776 165.693 45.9166C163.276 47.2928 159.947 47.9809 155.706 47.9809ZM155.706 25.1063C158.682 25.1063 160.17 22.9862 160.17 18.746C160.17 16.6631 159.761 15.0638 158.942 13.9479C158.124 12.8321 157.045 12.2742 155.706 12.2742C154.33 12.2742 153.233 12.8135 152.415 13.8921C151.634 14.9708 151.243 16.5887 151.243 18.746C151.243 22.9862 152.731 25.1063 155.706 25.1063ZM155.706 45.4703C157.641 45.4703 159.147 44.9495 160.226 43.9081C161.304 42.9038 161.844 41.3789 161.844 39.3332C161.844 37.6966 161.323 36.339 160.281 35.2604C159.277 34.1445 157.901 33.4193 156.153 33.0845L153.531 32.8055C152.229 33.3635 151.243 34.1631 150.574 35.2046C149.904 36.246 149.569 37.6222 149.569 39.3332C149.569 41.3789 150.109 42.9038 151.187 43.9081C152.266 44.9495 153.772 45.4703 155.706 45.4703Z" fill="var(--fill-0, #303030)"/>
<path d="M191.717 11.1584C192.386 11.6419 192.87 12.1812 193.167 12.7763C193.465 13.3342 193.613 13.6318 193.613 13.669L190.768 15.8449C190.508 15.5101 190.173 15.1568 189.764 14.7848C188.946 14.0409 187.997 13.669 186.918 13.669C184.761 13.669 183.106 14.2455 181.953 15.3985L182.065 16.2354C182.139 16.9049 182.176 17.5186 182.176 18.0765V36.8225H174.923V17.8534C174.923 15.9564 174.663 14.5616 174.142 13.669C173.659 12.7391 172.636 12.2742 171.074 12.2742H170.516V10.6004H176.039C177.304 10.6004 178.289 10.7678 178.996 11.1026C179.74 11.4001 180.316 11.9208 180.726 12.6647C182.734 10.9166 185.077 10.0425 187.755 10.0425C189.355 10.0425 190.675 10.4145 191.717 11.1584Z" fill="var(--fill-0, #303030)"/>
<path d="M204.882 37.3805C201.869 37.3805 199.526 36.711 197.852 35.372C196.215 33.9958 195.397 32.1546 195.397 29.8486C195.397 27.9889 195.825 26.4453 196.68 25.2179C197.573 23.9904 199.117 23.0606 201.311 22.4283C203.505 21.796 206.555 21.4798 210.461 21.4798H211.298C211.298 18.2439 210.851 15.9564 209.959 14.6174C209.066 13.2412 207.746 12.5531 205.997 12.5531C204.547 12.5531 203.357 12.9065 202.427 13.6132C201.497 14.3199 200.827 15.6403 200.418 17.5744H197.35C197.35 16.3098 197.424 15.2311 197.573 14.3385C197.759 13.4458 198.149 12.6647 198.745 11.9952C199.898 10.6934 202.687 10.0425 207.113 10.0425C210.833 10.0425 213.66 11.0282 215.594 12.9995C217.565 14.9336 218.551 17.8534 218.551 21.7588V36.8225H213.808L211.856 34.3119H211.577C211.242 34.8326 210.721 35.3534 210.014 35.8741C208.75 36.8783 207.039 37.3805 204.882 37.3805ZM206.555 34.5909C207.336 34.5909 208.006 34.4421 208.564 34.1445C209.122 33.8098 209.661 33.3635 210.182 32.8055C210.665 32.2848 211.037 31.6711 211.298 30.9644V23.9905H210.461C207.82 23.9905 205.905 24.474 204.714 25.441C203.524 26.3709 202.929 27.8401 202.929 29.8486C202.929 31.3736 203.245 32.5452 203.877 33.3635C204.51 34.1817 205.402 34.5909 206.555 34.5909Z" fill="var(--fill-0, #303030)"/>
<path d="M225.92 17.8534C225.92 15.9564 225.66 14.5616 225.139 13.669C224.656 12.7391 223.633 12.2742 222.071 12.2742H221.513V10.6004H227.036C229.454 10.6004 231.035 11.3071 231.779 12.7205H232.002C234.047 10.9352 236.391 10.0425 239.031 10.0425C240.854 10.0425 242.435 10.3959 243.774 11.1026C245.15 11.7721 246.136 12.4788 246.731 13.2226C247.623 12.2556 248.683 11.4931 249.911 10.9352C251.138 10.3401 252.719 10.0425 254.653 10.0425C261.162 10.0425 264.417 13.4644 264.417 20.3082V36.8225H257.164V20.2524C257.164 17.686 256.755 15.8077 255.936 14.6174C255.118 13.4272 254.039 12.8321 252.7 12.8321C251.696 12.8321 250.766 13.0367 249.911 13.4458C249.055 13.8178 248.386 14.3199 247.902 14.9522C247.977 15.101 248.125 15.5101 248.349 16.1796C248.646 17.2954 248.795 18.6716 248.795 20.3082V36.8225H241.542V20.2524C241.542 17.686 241.133 15.8077 240.315 14.6174C239.496 13.4272 238.418 12.8321 237.079 12.8321C236.298 12.8321 235.479 13.0739 234.624 13.5574C233.806 14.0037 233.192 14.5059 232.783 15.0638L232.95 15.8449C233.099 16.2912 233.173 17.0165 233.173 18.0207V36.8225H225.92V17.8534Z" fill="var(--fill-0, #303030)"/>
</g>
</svg>
